<svg width="425" height="73" viewBox="0 0 425 73" fill="none" xmlns="http://www.w3.org/2000/svg">
<rect width="425" height="60" rx="30" fill="#FBBB3B"/>
<path d="M13.8886 30.45C13.8886 36.15 15.8386 40.95 19.6886 44.8C23.5386 48.65 28.3386 50.55 34.0386 50.55C37.9886 50.55 41.6886 49.5 45.0386 47.45C48.4386 45.35 50.7886 42.5 52.0886 38.9L44.6387 35.45C42.8886 39.8 38.9386 42.7 34.1386 42.7C30.6886 42.7 27.8886 41.5 25.6386 39.15C23.3886 36.75 22.2886 33.8 22.2886 30.35C22.2886 26.95 23.4386 24.05 25.6886 21.7C27.9386 19.35 30.7886 18.15 34.1386 18.15C38.9886 18.15 42.8886 20.85 44.5386 25.2L51.9386 21.8C50.6387 18.25 48.3387 15.4 45.0386 13.35C41.7886 11.3 38.1386 10.25 34.1886 10.25C28.5386 10.25 23.7386 12.2 19.7886 16.15C15.8386 20.05 13.8886 24.8 13.8886 30.45ZM64.4402 50.5C67.9902 50.5 70.6402 49.2 72.4402 46.65L72.5402 46.7V50H79.7402V33.45C79.7402 26.45 75.1902 22.7 68.1402 22.7C62.2902 22.7 58.1902 24.8 55.8902 29.05L61.8402 32.6C63.1902 30.2 65.1402 29 67.7902 29C70.5902 29 72.0902 30.45 72.0902 32.3C72.0902 33.6 71.3902 34.25 69.9902 34.25H67.3402C64.3402 34.25 61.8402 34.7 59.3902 35.85C56.9902 37 55.4402 39.3 55.4402 42.45V42.55C55.4402 44.95 56.2902 46.9 58.0402 48.35C59.7902 49.8 61.9402 50.5 64.4402 50.5ZM66.6902 44.8C64.6902 44.8 63.2902 43.9 63.2902 42.1C63.2902 40.1 65.0902 39.05 67.3402 39.05H72.0402V39.65C72.0402 42.6 70.0402 44.8 66.6902 44.8ZM103.577 23.2C103.177 23.05 102.677 23 102.027 23C98.4765 23 95.6265 24.95 94.4765 27.4H94.4265V23.3H86.6765V50H94.4765V38.7C94.4765 33.9 96.6765 30.75 101.727 30.75C102.377 30.75 102.977 30.8 103.577 30.9V23.2ZM133.031 38.8C133.081 38.2 133.131 37.25 133.131 36C133.131 32.05 131.881 28.8 129.431 26.35C126.981 23.9 123.781 22.65 119.831 22.65C115.981 22.65 112.631 24 109.831 26.75C107.081 29.5 105.681 32.75 105.681 36.6C105.681 40.7 107.081 44.05 109.881 46.7C112.731 49.3 116.181 50.6 120.331 50.6C125.781 50.6 129.581 48.6 131.831 44.55L126.181 40.85C124.981 42.8 122.581 44.05 120.231 44.05C116.881 44.05 114.081 42.05 113.631 38.8H133.031ZM113.831 33.65C113.981 32.6 114.581 31.55 115.631 30.55C116.681 29.5 118.031 29 119.631 29C123.181 29 125.131 31.3 125.331 33.65H113.831ZM168.627 9.7C167.477 9.35 166.277 9.15 164.977 9.15C157.427 9.15 153.727 13.7 153.727 20.65V23.3H148.927V29.95H153.727V50H161.527V29.95H168.477V23.3H161.477V20.5C161.477 17.45 163.227 15.8 166.227 15.8C167.177 15.8 167.977 15.9 168.627 16.1V9.7ZM170.72 36.7C170.72 40.7 172.12 44 174.92 46.65C177.72 49.3 181.17 50.6 185.27 50.6C189.32 50.6 192.77 49.25 195.62 46.6C198.47 43.9 199.87 40.55 199.87 36.55C199.87 32.6 198.47 29.35 195.67 26.7C192.87 24.05 189.42 22.7 185.37 22.7C181.32 22.7 177.82 24.05 174.97 26.75C172.12 29.4 170.72 32.75 170.72 36.7ZM178.72 36.6C178.72 34.65 179.37 33 180.62 31.75C181.87 30.45 183.42 29.8 185.27 29.8C187.12 29.8 188.72 30.45 189.97 31.75C191.22 33 191.87 34.65 191.87 36.6C191.87 40.6 189.07 43.45 185.32 43.45C183.47 43.45 181.87 42.8 180.62 41.55C179.37 40.25 178.72 38.6 178.72 36.6ZM222.327 23.2C221.927 23.05 221.427 23 220.777 23C217.227 23 214.377 24.95 213.227 27.4H213.177V23.3H205.427V50H213.227V38.7C213.227 33.9 215.427 30.75 220.477 30.75C221.127 30.75 221.727 30.8 222.327 30.9V23.2ZM245.446 50.5C248.996 50.5 251.646 49.2 253.446 46.65L253.546 46.7V50H260.746V33.45C260.746 26.45 256.196 22.7 249.146 22.7C243.296 22.7 239.196 24.8 236.896 29.05L242.846 32.6C244.196 30.2 246.146 29 248.796 29C251.596 29 253.096 30.45 253.096 32.3C253.096 33.6 252.396 34.25 250.996 34.25H248.346C245.346 34.25 242.846 34.7 240.396 35.85C237.996 37 236.446 39.3 236.446 42.45V42.55C236.446 44.95 237.296 46.9 239.046 48.35C240.796 49.8 242.946 50.5 245.446 50.5ZM247.696 44.8C245.696 44.8 244.296 43.9 244.296 42.1C244.296 40.1 246.096 39.05 248.346 39.05H253.046V39.65C253.046 42.6 251.046 44.8 247.696 44.8Z" fill="#FBFCFE"/>
<path d="M296.731 43.4C296.181 43.55 295.581 43.6 294.931 43.6C291.881 43.6 290.281 42.4 290.281 39.35V30.05H296.881V23.3H290.281V14.95H282.581V23.3H277.681V30.05H282.481V40.3C282.481 46.55 286.131 50.35 293.081 50.35C294.381 50.35 295.581 50.2 296.731 49.85V43.4ZM300.749 36.7C300.749 40.7 302.149 44 304.949 46.65C307.749 49.3 311.199 50.6 315.299 50.6C319.349 50.6 322.799 49.25 325.649 46.6C328.499 43.9 329.899 40.55 329.899 36.55C329.899 32.6 328.499 29.35 325.699 26.7C322.899 24.05 319.449 22.7 315.399 22.7C311.349 22.7 307.849 24.05 304.999 26.75C302.149 29.4 300.749 32.75 300.749 36.7ZM308.749 36.6C308.749 34.65 309.399 33 310.649 31.75C311.899 30.45 313.449 29.8 315.299 29.8C317.149 29.8 318.749 30.45 319.999 31.75C321.249 33 321.899 34.65 321.899 36.6C321.899 40.6 319.099 43.45 315.349 43.45C313.499 43.45 311.899 42.8 310.649 41.55C309.399 40.25 308.749 38.6 308.749 36.6ZM335.206 23.3V40.05C335.206 43 336.056 45.5 337.706 47.55C339.406 49.55 341.856 50.55 345.006 50.55C348.206 50.55 350.706 49.25 352.456 46.7H352.506V50H360.206V23.3H352.406V38.2C352.406 41.15 350.756 43.3 347.606 43.3C344.456 43.3 343.006 41.35 343.006 38.2V23.3H335.206ZM384.289 23.2C383.889 23.05 383.389 23 382.739 23C379.189 23 376.339 24.95 375.189 27.4H375.139V23.3H367.389V50H375.189V38.7C375.189 33.9 377.389 30.75 382.439 30.75C383.089 30.75 383.689 30.8 384.289 30.9V23.2ZM398.43 17.55C400.83 17.55 402.53 19.1 402.53 21.3C402.53 22.8 401.48 24.45 399.38 26.3L396.98 28.4C394.33 30.75 393.28 32.65 393.28 35.5V37.15H400.88V36.8C400.88 34.4 402.18 32.8 404.58 30.85C406.68 29.15 408.23 27.6 409.18 26.15C410.18 24.7 410.68 22.9 410.68 20.85C410.68 17.75 409.58 15.2 407.33 13.25C405.08 11.25 402.18 10.25 398.63 10.25C393.38 10.25 388.58 13.1 386.53 17.75L393.28 21.3C394.48 18.8 396.18 17.55 398.43 17.55ZM397.33 40.85C394.73 40.85 392.53 43.1 392.53 45.75C392.53 48.4 394.73 50.55 397.33 50.55C400.08 50.55 402.23 48.4 402.23 45.75C402.23 43 400.08 40.85 397.33 40.85Z" fill="#142B4B"/>
</svg>
