<svg width="215" height="26" viewBox="0 0 215 26" fill="none" xmlns="http://www.w3.org/2000/svg">
<path d="M8.784 22.24C7.296 22.24 6.008 21.912 4.92 21.256C3.832 20.6 2.984 19.672 2.376 18.472C1.768 17.256 1.464 15.792 1.464 14.08C1.464 12.4 1.776 10.952 2.4 9.736C3.04 8.52 3.936 7.584 5.088 6.928C6.256 6.256 7.592 5.92 9.096 5.92C10.744 5.92 12.072 6.224 13.08 6.832C14.104 7.44 14.92 8.384 15.528 9.664L13.152 10.792C12.848 9.912 12.344 9.256 11.64 8.824C10.952 8.376 10.112 8.152 9.12 8.152C8.128 8.152 7.256 8.384 6.504 8.848C5.768 9.312 5.192 9.992 4.776 10.888C4.36 11.768 4.152 12.832 4.152 14.08C4.152 15.344 4.336 16.424 4.704 17.32C5.072 18.2 5.624 18.872 6.36 19.336C7.112 19.8 8.032 20.032 9.12 20.032C9.712 20.032 10.264 19.96 10.776 19.816C11.288 19.656 11.736 19.432 12.12 19.144C12.504 18.84 12.8 18.464 13.008 18.016C13.232 17.552 13.344 17.008 13.344 16.384V15.928H8.736V13.84H15.624V22H13.704L13.56 18.808L14.04 19.048C13.656 20.056 13.016 20.84 12.12 21.4C11.24 21.96 10.128 22.24 8.784 22.24ZM32.3432 6.16V15.928C32.3432 18.024 31.7912 19.6 30.6872 20.656C29.5832 21.712 27.9752 22.24 25.8632 22.24C23.7832 22.24 22.1832 21.712 21.0632 20.656C19.9592 19.6 19.4072 18.024 19.4072 15.928V6.16H21.9752V15.616C21.9752 17.104 22.2952 18.208 22.9352 18.928C23.5752 19.648 24.5512 20.008 25.8632 20.008C27.1912 20.008 28.1752 19.648 28.8152 18.928C29.4552 18.208 29.7752 17.104 29.7752 15.616V6.16H32.3432ZM34.3003 22L40.2763 6.16H43.3483L49.3243 22H46.6123L42.5323 10.672L41.8123 8.392H41.7403L41.0683 10.624L36.9403 22H34.3003ZM37.4923 17.848V15.76H46.0603V17.848H37.4923ZM58.5893 6.16C60.2853 6.16 61.6293 6.584 62.6213 7.432C63.6293 8.28 64.1333 9.424 64.1333 10.864C64.1333 12.352 63.6293 13.504 62.6213 14.32C61.6293 15.12 60.2853 15.52 58.5893 15.52L58.3493 15.664H54.6773V22H52.1333V6.16H58.5893ZM58.3973 13.528C59.4373 13.528 60.2053 13.32 60.7013 12.904C61.2133 12.472 61.4693 11.816 61.4693 10.936C61.4693 10.072 61.2133 9.424 60.7013 8.992C60.2053 8.56 59.4373 8.344 58.3973 8.344H54.6773V13.528H58.3973ZM59.9093 14.056L65.0693 22H62.1172L57.7013 15.064L59.9093 14.056ZM73.8503 6.16C76.3303 6.16 78.2583 6.848 79.6343 8.224C81.0263 9.584 81.7223 11.536 81.7223 14.08C81.7223 16.624 81.0263 18.584 79.6343 19.96C78.2583 21.32 76.3303 22 73.8503 22H68.2583V6.16H73.8503ZM73.8503 19.816C75.5303 19.816 76.8103 19.32 77.6903 18.328C78.5863 17.32 79.0343 15.904 79.0343 14.08C79.0343 12.256 78.5863 10.848 77.6903 9.856C76.8103 8.848 75.5303 8.344 73.8503 8.344H70.8263V19.816H73.8503ZM88.0997 6.16V22H85.5317V6.16H88.0997ZM90.9253 22L96.9013 6.16H99.9733L105.949 22H103.237L99.1573 10.672L98.4373 8.392H98.3653L97.6933 10.624L93.5653 22H90.9253ZM94.1173 17.848V15.76H102.685V17.848H94.1173ZM121.742 6.16V22H118.694L112.574 12.016L111.038 9.208H111.014L111.11 11.776V22H108.758V6.16H111.782L117.878 16.12L119.438 18.976H119.462L119.366 16.384V6.16H121.742ZM131.519 22L137.495 6.16H140.567L146.543 22H143.831L139.751 10.672L139.031 8.392H138.959L138.287 10.624L134.159 22H131.519ZM134.711 17.848V15.76H143.279V17.848H134.711ZM162.336 6.16V22H159.288L153.168 12.016L151.632 9.208H151.608L151.704 11.776V22H149.352V6.16H152.376L158.472 16.12L160.032 18.976H160.056L159.96 16.384V6.16H162.336ZM173.456 22.24C171.968 22.24 170.68 21.912 169.592 21.256C168.504 20.6 167.656 19.672 167.048 18.472C166.44 17.256 166.136 15.792 166.136 14.08C166.136 12.4 166.448 10.952 167.072 9.736C167.712 8.52 168.608 7.584 169.76 6.928C170.928 6.256 172.264 5.92 173.768 5.92C175.416 5.92 176.744 6.224 177.752 6.832C178.776 7.44 179.592 8.384 180.2 9.664L177.824 10.792C177.52 9.912 177.016 9.256 176.312 8.824C175.624 8.376 174.784 8.152 173.792 8.152C172.8 8.152 171.928 8.384 171.176 8.848C170.44 9.312 169.864 9.992 169.448 10.888C169.032 11.768 168.824 12.832 168.824 14.08C168.824 15.344 169.008 16.424 169.376 17.32C169.744 18.2 170.296 18.872 171.032 19.336C171.784 19.8 172.704 20.032 173.792 20.032C174.384 20.032 174.936 19.96 175.448 19.816C175.96 19.656 176.408 19.432 176.792 19.144C177.176 18.84 177.472 18.464 177.68 18.016C177.904 17.552 178.016 17.008 178.016 16.384V15.928H173.408V13.84H180.296V22H178.376L178.232 18.808L178.712 19.048C178.328 20.056 177.688 20.84 176.792 21.4C175.912 21.96 174.8 22.24 173.456 22.24ZM184.391 22V6.16H195.863V8.368H186.959V12.928H193.919V15.088H186.959V19.792H196.199V22H184.391ZM202.217 19.792H210.953V22H199.649V6.16H202.217V19.792Z" fill="#142B4B"/>
<path d="M138.783 6.98106C141.24 7.41424 143.484 7.72455 145.13 7.87532C145.95 7.95047 146.634 7.9873 147.126 7.97747C147.368 7.97263 147.588 7.95625 147.762 7.91877C147.847 7.90058 147.952 7.87106 148.049 7.81606C148.14 7.76511 148.313 7.64012 148.356 7.39971C148.398 7.15929 148.278 6.98256 148.21 6.90372C148.137 6.81861 148.049 6.75495 147.976 6.70898C147.825 6.61428 147.623 6.52351 147.398 6.43623C146.939 6.25877 146.283 6.05921 145.487 5.84937C143.889 5.42837 141.674 4.95222 139.217 4.51904C136.76 4.08586 134.516 3.77555 132.87 3.62477C132.05 3.54962 131.366 3.51279 130.874 3.52263C130.632 3.52747 130.412 3.54385 130.238 3.58133C130.153 3.59951 130.048 3.62904 129.951 3.68403C129.86 3.73498 129.687 3.85998 129.644 4.10039C129.602 4.3408 129.722 4.51754 129.79 4.59638C129.863 4.68148 129.951 4.74515 130.024 4.79111C130.175 4.88582 130.377 4.97659 130.602 5.06386C131.061 5.24133 131.717 5.44089 132.513 5.65072C134.111 6.07173 136.326 6.54788 138.783 6.98106Z" stroke="#FBFCFE"/>
</svg>
